<svg width="23.999999999999996" height="23.999999999999996" xmlns="http://www.w3.org/2000/svg">

 <g>
  <title>background</title>
  <rect fill="none" id="canvas_background" height="402" width="582" y="-1" x="-1"/>
 </g>
 <g>
  <title>Layer 1</title>
  <path id="svg_1" fill="#000000" d="m2.935398,14.8284l1.41421,1.4142l4.24269,-4.2426l-4.24269,-4.24267l-1.41421,1.41422l2.82842,2.82845l-2.82842,2.8284z"/>
  <path stroke-width="0" id="svg_2" fill="#000000" d="m14,14.245614l-4,0l0,2l4,0l0,-2z"/>
  <path id="svg_3" fill="#000000" d="m2,2c-1.10457,0 -2,0.89543 -2,2l0,16c0,1.1046 0.89543,2 2,2l20,0c1.1046,0 2,-0.8954 2,-2l0,-16c0,-1.10457 -0.8954,-2 -2,-2l-20,0zm20,2l-20,0l0,16l20,0l0,-16z" clip-rule="evenodd" fill-rule="evenodd"/>
  <path transform="rotate(-180 18.6309814453125,11.999964714050291) " id="svg_4" fill="#000000" d="m15.80253,14.8284l1.41421,1.4142l4.24269,-4.2426l-4.24269,-4.24267l-1.41421,1.41422l2.82842,2.82845l-2.82842,2.8284z"/>
 </g>
</svg>