<svg width="24" height="20" xmlns="http://www.w3.org/2000/svg">
 <g>
  <title>background</title>
  <rect x="-1" y="-1" width="26" height="22" id="canvas_background" fill="none"/>
 </g>

 <g>
  <title>Layer 1</title>
  <path d="m2.9354,12.812636l1.41421,1.4142l4.24269,-4.2426l-4.24269,-4.24267l-1.41421,1.41422l2.82842,2.82845l-2.82842,2.8284z" fill="#ffffff" id="svg_1"/>
  <path d="m14,12.229846l-4,0l0,2l4,0l0,-2z" fill="#ffffff" id="svg_2" stroke-width="0"/>
  <path stroke="null" fill-rule="evenodd" clip-rule="evenodd" d="m2,-0.099446c-1.10457,0 -2,0.902923 -2,2.016737l0,16.133893c0,1.113844 0.89543,2.016737 2,2.016737l20,0c1.1046,0 2,-0.902893 2,-2.016737l0,-16.133893c0,-1.113813 -0.8954,-2.016737 -2,-2.016737l-20,0zm20,2.016737l-20,0l0,16.133893l20,0l0,-16.133893z" fill="#ffffff" id="svg_3"/>
  <path transform="rotate(-180 18.6309814453125,9.984201431274412) " d="m15.80253,12.812636l1.41421,1.4142l4.24269,-4.2426l-4.24269,-4.24267l-1.41421,1.41422l2.82842,2.82845l-2.82842,2.8284z" fill="#ffffff" id="svg_4"/>
 </g>
</svg>